<svg xmlns="http://www.w3.org/2000/svg" width="640" height="640" viewBox="0 0 640 640">
  <path id="Soustraction_1" data-name="Soustraction 1" d="M320,628a322.365,322.365,0,0,1-64.491-6.5,318.248,318.248,0,0,1-114.424-48.15A320.935,320.935,0,0,1,25.147,432.558,318.389,318.389,0,0,1,6.5,372.491a323.121,323.121,0,0,1,0-128.982,318.248,318.248,0,0,1,48.15-114.424A320.935,320.935,0,0,1,195.442,13.147,318.4,318.4,0,0,1,255.509-5.5a323.119,323.119,0,0,1,128.982,0,318.245,318.245,0,0,1,114.424,48.15,320.934,320.934,0,0,1,115.938,140.79A318.378,318.378,0,0,1,633.5,243.509a323.119,323.119,0,0,1,0,128.982,318.248,318.248,0,0,1-48.15,114.424,320.935,320.935,0,0,1-140.79,115.938A318.385,318.385,0,0,1,384.491,621.5,322.363,322.363,0,0,1,320,628ZM313,43C180.664,43,73,150.663,73,283S180.664,523,313,523,553,415.336,553,283,445.336,43,313,43Z" transform="translate(0 12)" fill="#ebebeb"/>
</svg>
